<?xml version="1.0" standalone="no"?>
<!DOCTYPE svg PUBLIC "-//W3C//DTD SVG 20010904//EN"
 "http://www.w3.org/TR/2001/REC-SVG-20010904/DTD/svg10.dtd">
<svg version="1.0" xmlns="http://www.w3.org/2000/svg"
 width="289.000000pt" height="289.000000pt" viewBox="0 0 289.000000 289.000000"
 preserveAspectRatio="xMidYMid meet">
<metadata>
Created by potrace 1.14, written by Peter Selinger 2001-2017
</metadata>
<g transform="translate(0.000000,289.000000) scale(0.100000,-0.100000)"
fill="#000000" stroke="none">
<path d="M0 1445 l0 -1445 1445 0 1445 0 0 1445 0 1445 -1445 0 -1445 0 0
-1445z m1210 1219 c0 -10 6 -14 15 -11 18 8 32 -13 15 -23 -9 -5 -9 -9 -1 -14
19 -12 12 -29 -9 -23 -13 3 -20 0 -20 -9 0 -8 -4 -14 -10 -14 -5 0 -10 6 -10
14 0 9 -7 12 -20 9 -21 -6 -28 11 -9 23 8 5 8 9 -1 14 -17 10 -3 31 15 23 9
-3 15 1 15 11 0 9 5 16 10 16 6 0 10 -7 10 -16z m490 0 c0 -10 6 -14 15 -11
18 8 32 -13 15 -23 -9 -5 -9 -9 -1 -14 19 -12 12 -29 -9 -23 -13 3 -20 0 -20
-9 0 -8 -4 -14 -10 -14 -5 0 -10 6 -10 14 0 9 -7 12 -20 9 -22 -6 -26 7 -8 25
9 9 9 12 0 12 -7 0 -12 7 -12 16 0 11 6 14 20 9 14 -5 20 -2 20 9 0 9 5 16 10
16 6 0 10 -7 10 -16z m-490 -309 c0 -57 -4 -95 -10 -95 -6 0 -10 38 -10 95 0
57 4 95 10 95 6 0 10 -38 10 -95z m490 0 c0 -57 -4 -95 -10 -95 -6 0 -10 38
-10 95 0 57 4 95 10 95 6 0 10 -38 10 -95z m-980 -290 c0 -57 -4 -95 -10 -95
-6 0 -10 38 -10 95 0 57 4 95 10 95 6 0 10 -38 10 -95z m1470 0 c0 -57 -4 -95
-10 -95 -6 0 -10 38 -10 95 0 57 4 95 10 95 6 0 10 -38 10 -95z m-1302 -22 c3
-9 -12 -13 -52 -13 -44 0 -56 3 -56 16 0 12 10 14 52 12 30 -2 53 -8 56 -15z
m122 2 c0 -12 -13 -15 -55 -15 -51 0 -65 7 -48 23 3 4 28 7 55 7 36 0 48 -4
48 -15z m120 0 c0 -11 -12 -15 -49 -15 -47 0 -68 9 -54 24 3 3 28 6 55 6 36 0
48 -4 48 -15z m120 0 c0 -11 -12 -15 -50 -15 -38 0 -50 4 -50 15 0 11 12 15
50 15 38 0 50 -4 50 -15z m128 -2 c3 -9 -12 -13 -52 -13 -44 0 -56 3 -56 16 0
12 10 14 52 12 30 -2 53 -8 56 -15z m122 2 c0 -12 -13 -15 -55 -15 -51 0 -65
7 -48 23 3 4 28 7 55 7 36 0 48 -4 48 -15z m120 0 c0 -12 -13 -15 -55 -15 -51
0 -65 7 -48 23 3 4 28 7 55 7 36 0 48 -4 48 -15z m120 0 c0 -11 -12 -15 -49
-15 -47 0 -68 9 -54 24 3 3 28 6 55 6 36 0 48 -4 48 -15z m120 0 c0 -11 -12
-15 -50 -15 -38 0 -50 4 -50 15 0 11 12 15 50 15 38 0 50 -4 50 -15z m128 -2
c3 -9 -12 -13 -52 -13 -44 0 -56 3 -56 16 0 12 10 14 52 12 30 -2 53 -8 56
-15z m122 2 c0 -12 -13 -15 -55 -15 -51 0 -65 7 -48 23 3 4 28 7 55 7 36 0 48
-4 48 -15z m-1629 -221 c-26 -33 -27 -79 -1 -121 24 -40 9 -53 -19 -17 -39 49
-36 120 6 167 27 29 39 3 14 -29z m369 3 c-26 -42 -26 -97 0 -130 14 -18 17
-28 9 -33 -16 -9 -47 33 -55 73 -8 41 0 73 27 106 28 37 43 24 19 -16z m239 9
c12 -19 21 -50 21 -72 0 -39 -31 -104 -50 -104 -15 0 -12 17 6 45 21 32 20 89
0 121 -9 13 -14 29 -11 34 9 15 11 13 34 -24z m736 -10 c-21 -32 -22 -89 -1
-121 18 -28 21 -45 6 -45 -19 0 -50 65 -50 105 0 47 35 114 52 97 7 -7 5 -18
-7 -36z m261 -32 c13 -51 -27 -147 -55 -130 -8 5 -5 15 9 33 25 33 26 88 1
130 -11 17 -17 34 -13 38 9 9 51 -41 58 -71z m364 10 c14 -41 6 -84 -21 -119
-28 -35 -43 -21 -19 18 26 41 25 88 -1 121 -11 14 -17 31 -14 37 10 16 42 -17
55 -57z m-1458 29 c37 -33 14 -133 -31 -133 -37 0 -61 28 -61 69 0 69 49 103
92 64z m494 -30 c23 -40 24 -43 6 -43 -11 0 -24 12 -31 27 -12 27 -13 27 -27
8 -8 -10 -14 -22 -14 -27 0 -4 -7 -8 -15 -8 -19 0 -19 3 6 51 25 50 41 48 75
-8z m489 23 c9 -14 15 -39 13 -58 -3 -32 -5 -33 -45 -33 -22 0 -39 -3 -37 -7
3 -5 19 -8 35 -8 18 0 28 -4 24 -10 -11 -18 -64 -11 -75 9 -15 30 -12 92 7
113 23 26 59 23 78 -6z m-1335 -71 c0 -11 -12 -15 -49 -15 -47 0 -68 9 -54 24
3 3 28 6 55 6 36 0 48 -4 48 -15z m1710 0 c0 -11 -12 -15 -50 -15 -38 0 -50 4
-50 15 0 11 12 15 50 15 38 0 50 -4 50 -15z m-1869 -221 c-26 -33 -27 -79 -1
-121 24 -40 9 -53 -19 -17 -39 49 -36 120 6 167 27 29 39 3 14 -29z m729 -49
c0 -57 -4 -95 -10 -95 -6 0 -10 38 -10 95 0 57 4 95 10 95 6 0 10 -38 10 -95z
m128 -3 c2 -77 0 -92 -13 -92 -12 0 -15 16 -15 96 0 72 3 95 13 92 8 -3 13
-34 15 -96z m122 3 c0 -78 -3 -95 -15 -95 -12 0 -15 16 -15 88 0 49 3 92 7 95
18 19 23 -1 23 -88z m120 0 c0 -78 -3 -95 -15 -95 -12 0 -15 16 -15 88 0 49 3
92 7 95 18 19 23 -1 23 -88z m120 0 c0 -57 -4 -95 -10 -95 -6 0 -10 38 -10 95
0 57 4 95 10 95 6 0 10 -38 10 -95z m750 29 c14 -41 6 -84 -21 -119 -28 -35
-43 -21 -19 18 26 41 25 88 -1 121 -11 14 -17 31 -14 37 10 16 42 -17 55 -57z
m-1810 -49 c0 -11 -12 -15 -49 -15 -47 0 -68 9 -54 24 3 3 28 6 55 6 36 0 48
-4 48 -15z m1710 0 c0 -11 -12 -15 -50 -15 -38 0 -50 4 -50 15 0 11 12 15 50
15 38 0 50 -4 50 -15z m-1630 -270 c0 -57 -4 -95 -10 -95 -6 0 -10 38 -10 95
0 57 4 95 10 95 6 0 10 -38 10 -95z m1470 0 c0 -57 -4 -95 -10 -95 -6 0 -10
38 -10 95 0 57 4 95 10 95 6 0 10 -38 10 -95z m-741 -7 c11 -10 14 -10 18 0 5
14 33 17 33 3 0 -37 -50 -59 -64 -28 -5 10 -7 10 -12 0 -6 -13 -34 -18 -34 -7
0 3 5 14 10 25 12 22 30 24 49 7z m-559 -78 c0 -5 -25 -10 -55 -10 -30 0 -55
5 -55 10 0 6 25 10 55 10 30 0 55 -4 55 -10z m120 0 c0 -5 -25 -10 -55 -10
-30 0 -55 5 -55 10 0 6 25 10 55 10 30 0 55 -4 55 -10z m120 0 c0 -5 -25 -10
-55 -10 -30 0 -55 5 -55 10 0 6 25 10 55 10 30 0 55 -4 55 -10z m730 0 c0 -5
-22 -10 -50 -10 -27 0 -50 5 -50 10 0 6 23 10 50 10 28 0 50 -4 50 -10z m130
0 c0 -5 -25 -10 -55 -10 -30 0 -55 5 -55 10 0 6 25 10 55 10 30 0 55 -4 55
-10z m120 0 c0 -5 -25 -10 -55 -10 -30 0 -55 5 -55 10 0 6 25 10 55 10 30 0
55 -4 55 -10z m-900 -205 c0 -57 -4 -95 -10 -95 -6 0 -10 38 -10 95 0 57 4 95
10 95 6 0 10 -38 10 -95z m490 0 c0 -57 -4 -95 -10 -95 -6 0 -10 38 -10 95 0
57 4 95 10 95 6 0 10 -38 10 -95z m-940 -85 c0 -5 -22 -10 -50 -10 -27 0 -50
5 -50 10 0 6 23 10 50 10 28 0 50 -4 50 -10z m130 0 c0 -5 -25 -10 -55 -10
-30 0 -55 5 -55 10 0 6 25 10 55 10 30 0 55 -4 55 -10z m120 0 c0 -5 -25 -10
-55 -10 -30 0 -55 5 -55 10 0 6 25 10 55 10 30 0 55 -4 55 -10z m120 0 c0 -5
-25 -10 -55 -10 -30 0 -55 5 -55 10 0 6 25 10 55 10 30 0 55 -4 55 -10z m730
0 c0 -5 -22 -10 -50 -10 -27 0 -50 5 -50 10 0 6 23 10 50 10 28 0 50 -4 50
-10z m130 0 c0 -5 -25 -10 -55 -10 -30 0 -55 5 -55 10 0 6 25 10 55 10 30 0
55 -4 55 -10z m120 0 c0 -5 -25 -10 -55 -10 -30 0 -55 5 -55 10 0 6 25 10 55
10 30 0 55 -4 55 -10z m120 0 c0 -5 -25 -10 -55 -10 -30 0 -55 5 -55 10 0 6
25 10 55 10 30 0 55 -4 55 -10z m120 0 c0 -5 -22 -10 -50 -10 -27 0 -50 5 -50
10 0 6 23 10 50 10 28 0 50 -4 50 -10z m-1830 -135 c0 -6 -80 -167 -85 -174
-2 -1 -8 0 -14 3 -13 9 69 176 86 176 7 0 13 -2 13 -5z m609 -2 c-1 -23 -87
-175 -93 -165 -8 13 70 172 84 172 6 0 10 -3 9 -7z m208 -78 c27 -52 39 -87
32 -91 -13 -8 -10 -13 -58 83 -46 92 -46 93 -28 93 7 0 31 -38 54 -85z m283
80 c0 -6 -80 -167 -85 -174 -2 -1 -8 0 -14 3 -13 9 69 176 86 176 7 0 13 -2
13 -5z m200 -75 c40 -80 47 -100 32 -100 -7 0 -92 162 -92 175 0 3 4 5 10 5 5
0 28 -36 50 -80z m617 -5 c27 -52 39 -87 32 -91 -13 -8 -10 -13 -58 83 -46 92
-46 93 -28 93 7 0 31 -38 54 -85z m-2079 -283 c2 -77 0 -92 -13 -92 -12 0 -15
16 -15 96 0 72 3 95 13 92 8 -3 13 -34 15 -96z m490 0 c2 -77 0 -92 -13 -92
-12 0 -15 16 -15 96 0 72 3 95 13 92 8 -3 13 -34 15 -96z m367 54 c-21 -32
-22 -89 -1 -121 18 -28 21 -45 6 -45 -19 0 -50 65 -50 105 0 47 35 114 52 97
7 -7 5 -18 -7 -36z m484 10 c12 -19 21 -50 21 -72 0 -39 -31 -104 -50 -104
-15 0 -12 17 6 45 21 32 20 89 0 121 -9 13 -14 29 -11 34 9 15 11 13 34 -24z
m371 -61 c0 -78 -3 -95 -15 -95 -12 0 -15 16 -15 88 0 49 3 92 7 95 18 19 23
-1 23 -88z m490 0 c0 -78 -3 -95 -15 -95 -12 0 -15 16 -15 88 0 49 3 92 7 95
18 19 23 -1 23 -88z m-1233 13 c29 -27 29 -39 -1 -67 -32 -30 -56 -18 -27 13
21 23 21 23 1 41 -11 10 -17 22 -14 26 8 13 16 11 41 -13z m113 11 c0 -8 5 -7
15 1 13 11 18 10 30 -6 17 -23 19 -34 4 -34 -8 0 -8 -4 1 -15 10 -11 9 -18 -3
-30 -19 -18 -37 -20 -38 -2 0 10 -2 10 -6 0 -6 -17 -21 -16 -40 2 -11 12 -12
19 -4 29 9 11 9 15 -1 19 -10 3 -8 10 6 26 21 23 36 27 36 10z m164 2 c3 -4
-3 -16 -14 -26 -20 -18 -20 -18 1 -41 29 -31 5 -43 -27 -13 -30 28 -30 36 -2
66 23 25 34 28 42 14z"/>
<path d="M935 1820 c-4 -6 5 -10 20 -10 15 0 24 4 20 10 -3 6 -12 10 -20 10
-8 0 -17 -4 -20 -10z"/>
<path d="M952 1770 c0 -14 2 -19 5 -12 2 6 2 18 0 25 -3 6 -5 1 -5 -13z"/>
<path d="M930 1728 c0 -4 12 -8 27 -8 14 0 23 3 19 7 -10 10 -46 11 -46 1z"/>
<path d="M1911 1817 c-8 -11 -5 -13 19 -9 16 2 27 8 24 13 -8 13 -30 11 -43
-4z"/>
<path d="M1962 1780 c0 -14 2 -19 5 -12 2 6 2 18 0 25 -3 6 -5 1 -5 -13z"/>
<path d="M1926 1781 c-4 -7 -5 -15 -2 -18 9 -9 19 4 14 18 -4 11 -6 11 -12 0z"/>
</g>
</svg>
